<?xml version="1.0" standalone="no"?>
<!DOCTYPE svg PUBLIC "-//W3C//DTD SVG 20010904//EN"
 "http://www.w3.org/TR/2001/REC-SVG-20010904/DTD/svg10.dtd">
<svg version="1.0" xmlns="http://www.w3.org/2000/svg"
 width="300.000000pt" height="300.000000pt" viewBox="0 0 300.000000 300.000000"
 preserveAspectRatio="xMidYMid meet">
<metadata>
Created by potrace 1.10, written by Peter Selinger 2001-2011
</metadata>
<g transform="translate(0.000000,300.000000) scale(0.100000,-0.100000)"
fill="#000000" stroke="none">
<path d="M1394 2990 c-17 -4 -53 -24 -80 -44 -44 -34 -54 -37 -91 -32 -54 7
-118 -14 -118 -40 -1 -21 40 -54 67 -54 9 0 35 -16 58 -35 23 -19 46 -35 51
-35 5 0 9 -4 9 -10 0 -5 -9 -10 -19 -10 -11 0 -23 -5 -27 -11 -5 -8 15 -10 72
-5 231 19 229 19 315 -3 135 -34 189 -27 189 26 0 35 -33 46 -125 41 l-83 -4
-5 58 c-6 68 -31 116 -72 139 -37 20 -100 29 -141 19z m98 -38 c49 -31 69 -64
75 -126 l6 -53 -99 -6 c-55 -4 -110 -8 -122 -9 -20 -3 -27 5 -44 51 -17 43
-22 51 -30 37 -6 -11 -4 -26 6 -48 21 -41 20 -45 -4 -23 -28 25 -27 79 3 100
12 9 51 37 87 64 36 26 70 45 75 42 6 -4 27 -17 47 -29z"/>
<path d="M1315 2661 c-33 -9 -70 -23 -82 -29 -28 -16 -30 -53 -4 -77 19 -16
23 -16 83 5 44 15 95 23 168 27 90 4 118 1 195 -21 82 -22 92 -23 108 -9 26
25 22 60 -11 77 -93 48 -336 62 -457 27z m174 -20 l21 -29 -43 -5 c-36 -4 -45
-1 -64 21 -28 33 -22 42 27 42 31 0 43 -6 59 -29z m161 19 c13 0 80 -77 80
-93 0 -5 -90 25 -107 36 -7 4 -22 22 -34 39 l-23 31 33 -6 c19 -4 41 -7 51 -7z
m-345 -46 c21 -32 10 -45 -36 -47 -28 -2 -35 2 -37 20 -2 13 5 27 20 37 30 21
33 21 53 -10z"/>
<path d="M1129 2575 c-3 -2 -50 -14 -105 -26 -89 -19 -103 -24 -117 -49 -37
-61 -112 -72 -192 -27 l-39 22 -103 -109 -102 -110 42 -24 c46 -26 77 -51 77
-62 0 -4 -19 -10 -42 -13 -127 -15 -251 -105 -310 -225 -29 -58 -33 -77 -36
-167 -10 -254 113 -555 346 -848 129 -163 312 -318 410 -347 20 -7 71 -14 112
-17 50 -4 83 -12 100 -24 14 -11 57 -25 95 -32 88 -17 120 -34 183 -95 l49
-48 54 49 c69 62 98 77 184 94 39 7 82 22 97 33 20 14 43 20 84 20 151 0 317
106 492 313 195 231 330 486 376 709 22 105 20 248 -3 316 -49 143 -182 252
-328 269 -24 3 -43 9 -43 13 0 11 31 36 77 62 l41 24 -101 110 -102 111 -26
-18 c-14 -10 -46 -23 -71 -29 -39 -10 -52 -9 -82 5 -20 10 -44 30 -53 45 -14
24 -28 30 -112 48 -53 12 -104 24 -112 27 -13 5 -18 -3 -24 -41 -11 -74 -7
-73 -99 -42 -47 15 -119 35 -161 44 -91 19 -165 10 -317 -40 -107 -35 -102
-36 -113 38 -7 42 -14 54 -26 41z m3 -105 c10 -48 15 -59 28 -54 61 27 181 65
246 79 124 26 234 6 435 -79 13 -6 18 4 29 53 7 34 14 61 16 61 1 0 39 -9 83
-19 67 -16 85 -25 111 -55 52 -59 122 -69 206 -29 l34 17 73 -80 74 -79 -26
-16 c-14 -9 -41 -33 -60 -53 -54 -56 -78 -56 -261 0 -132 40 -160 51 -160 67
0 29 -18 56 -50 72 -34 17 -116 20 -157 4 -15 -6 -56 -11 -89 -11 -79 -2 -121
21 -151 82 -18 36 -22 40 -23 21 0 -13 -16 -39 -38 -61 -51 -51 -91 -58 -208
-35 -134 26 -186 9 -211 -69 -8 -27 -18 -32 -158 -73 -179 -53 -200 -52 -264
10 -25 25 -53 48 -63 53 -13 8 -4 22 59 88 l75 79 33 -16 c84 -40 153 -30 205
30 27 30 44 39 108 53 43 10 80 19 84 19 4 1 13 -26 20 -59z m435 -135 c37
-18 38 -18 250 2 79 7 113 -11 113 -59 0 -17 -7 -40 -17 -50 -28 -32 -83 -20
-83 18 0 23 -1 23 -40 9 -103 -36 -220 -27 -272 22 -26 24 -26 25 -37 5 -29
-54 -151 -66 -294 -27 -22 6 -26 4 -21 -8 3 -10 -4 -22 -21 -33 -25 -16 -27
-16 -53 3 -39 29 -41 74 -6 102 32 25 72 27 173 5 41 -8 91 -12 111 -9 49 8
98 39 112 70 l12 26 18 -30 c10 -16 35 -37 55 -46z m85 -125 c40 0 88 4 106 9
28 8 36 6 57 -15 35 -35 79 -32 118 7 l31 31 147 -43 148 -44 -41 -39 c-80
-77 -101 -187 -54 -280 23 -46 23 -48 10 -149 -7 -56 -14 -135 -14 -174 l0
-73 -330 0 -330 0 0 405 0 405 40 -20 c29 -15 59 -20 112 -20z m-587 -20 c22
-24 73 -26 101 -5 20 15 64 20 64 8 0 -5 -7 -16 -15 -27 -15 -20 -10 -145 7
-180 9 -17 8 -18 -13 -11 -13 4 -41 10 -62 12 -41 6 -38 2 -122 130 -46 69
-46 93 0 93 12 0 30 -9 40 -20z m395 -95 c0 -63 -3 -115 -6 -115 -10 0 -31 29
-60 80 -13 25 -36 60 -49 79 -33 45 -32 51 13 52 20 1 48 5 62 9 14 4 28 8 33
9 4 1 7 -51 7 -114z m-511 81 c6 -7 9 -20 6 -28 -4 -9 4 -22 20 -32 14 -9 37
-41 50 -71 14 -33 30 -55 39 -55 20 0 20 -11 2 -36 -15 -19 -15 -19 -30 1 -8
11 -18 17 -22 13 -4 -4 -13 -3 -21 4 -7 6 -16 8 -20 5 -3 -4 -22 9 -41 29 -32
34 -34 38 -28 85 5 40 4 51 -9 55 -14 6 -14 8 1 25 20 22 37 24 53 5z m-270
-22 c63 -18 132 -82 151 -139 7 -20 10 -63 8 -95 -5 -72 -40 -129 -105 -170
-88 -56 -165 -52 -225 11 -35 37 -38 44 -38 99 0 52 4 64 31 95 33 37 95 61
130 50 52 -17 63 -99 14 -111 -29 -7 -52 8 -57 38 -3 21 -4 21 -33 -4 -24 -21
-30 -34 -30 -68 0 -111 150 -122 228 -18 24 33 33 105 18 151 -17 51 -80 104
-133 112 -122 18 -265 -68 -321 -194 -83 -188 51 -581 309 -905 56 -70 86
-118 98 -156 10 -30 29 -75 43 -99 l25 -43 -30 22 c-35 26 -121 121 -213 235
-223 276 -358 629 -329 859 24 195 178 333 386 345 11 0 44 -6 73 -15z m619
-21 c2 -20 10 -33 22 -36 12 -3 29 -28 45 -62 15 -36 32 -59 45 -62 24 -6 24
-12 4 -38 -15 -19 -16 -20 -29 -1 -8 10 -21 16 -29 13 -9 -4 -18 -2 -21 4 -4
5 -10 7 -14 5 -4 -3 -23 7 -41 22 -30 26 -33 32 -31 84 0 31 -4 60 -10 63 -15
10 20 47 40 43 10 -2 17 -16 19 -35z m1155 27 c174 -28 300 -153 327 -325 36
-226 -98 -581 -328 -870 -77 -96 -192 -223 -218 -240 -20 -13 -19 -10 6 38 16
29 34 72 40 96 7 28 35 73 78 125 272 334 411 732 324 928 -79 180 -310 256
-416 137 -95 -104 -35 -263 103 -277 46 -4 53 -2 81 26 41 42 41 83 -2 125
-31 31 -33 31 -36 10 -5 -31 -27 -46 -57 -39 -49 12 -38 94 14 111 32 10 95
-12 125 -44 101 -106 0 -275 -148 -247 -96 18 -186 127 -186 225 0 95 69 187
162 216 53 17 59 17 131 5z m-1599 -16 c3 -9 6 -29 6 -46 0 -31 0 -31 -21 -12
-33 29 -43 55 -28 65 21 13 36 11 43 -7z m-165 -81 c69 -52 91 -136 51 -201
-44 -71 -140 -96 -179 -46 -24 31 -26 53 -8 78 12 16 14 16 31 -3 40 -44 116
-12 116 48 0 17 -10 42 -24 58 -51 59 -179 23 -242 -68 -27 -40 -29 -48 -29
-143 1 -86 6 -115 33 -198 39 -115 125 -289 205 -411 l58 -89 -3 -71 -3 -72
-79 107 c-190 254 -296 507 -300 708 -1 110 19 168 82 233 85 88 222 121 291
70z m1818 -3 c63 -28 126 -91 155 -154 19 -42 23 -67 22 -141 -2 -202 -110
-461 -299 -713 l-80 -106 -3 71 -3 71 62 94 c73 111 167 302 204 413 18 53 29
111 32 172 5 81 3 97 -17 138 -36 75 -142 137 -207 120 -38 -9 -73 -50 -73
-85 0 -61 76 -94 116 -49 17 19 19 19 31 3 18 -25 16 -47 -8 -78 -58 -74 -199
12 -199 122 0 56 43 117 100 141 34 15 111 6 167 -19z m-1544 -118 c37 -17 38
-18 20 -33 -10 -9 -40 -29 -67 -45 l-49 -28 6 33 c4 19 7 54 7 78 0 45 0 45
23 29 12 -9 39 -24 60 -34z m286 -39 c53 -31 127 -76 165 -99 l69 -42 3 -52 3
-51 -37 22 c-20 12 -62 35 -92 52 -30 17 -88 50 -128 75 -39 24 -78 42 -85 39
-6 -2 -81 -48 -164 -100 -168 -106 -153 -104 -167 -21 -5 30 -2 32 162 131 92
55 169 101 171 102 3 0 48 -25 100 -56z m-794 -40 c0 -56 4 -74 24 -102 33
-46 100 -75 156 -67 l42 7 7 -38 c11 -67 6 -245 -9 -352 -14 -98 -20 -120 -29
-110 -2 2 -31 54 -64 114 -145 261 -201 497 -140 594 7 12 13 21 13 21 0 0 0
-30 0 -67z m1002 -30 c-4 -3 -105 52 -117 64 -3 3 11 3 31 -1 28 -5 42 -2 60
13 l24 19 3 -45 c2 -25 1 -47 -1 -50z m1122 15 c25 -112 -36 -309 -167 -545
-31 -57 -60 -103 -63 -103 -21 0 -46 324 -35 433 l8 68 43 -6 c56 -9 123 20
156 66 20 28 24 46 24 102 0 54 2 64 12 51 6 -9 17 -39 22 -66z m-1401 -98 c2
-13 13 -31 24 -38 10 -8 30 -38 43 -68 14 -31 33 -58 45 -62 19 -7 19 -9 4
-30 -16 -23 -16 -23 -30 -4 -7 11 -26 19 -43 20 -63 2 -105 57 -95 124 5 28 3
42 -6 48 -11 7 -11 11 0 25 20 24 54 15 58 -15z m-372 -52 c15 -106 10 -362
-11 -478 -32 -187 -5 -375 68 -472 20 -28 53 -53 91 -72 50 -26 69 -30 137
-29 57 0 82 -4 91 -14 20 -24 62 -42 119 -49 60 -7 120 -37 162 -82 l28 -29
36 34 c48 43 110 73 154 73 43 1 104 22 130 46 16 14 38 18 102 19 71 1 89 5
137 30 73 40 123 112 150 219 25 100 25 189 0 358 -11 73 -20 180 -20 237 0
113 18 281 30 281 20 0 27 -28 20 -75 -12 -67 -11 -347 0 -410 27 -145 32
-219 21 -311 -28 -233 -130 -351 -315 -362 -62 -4 -91 -11 -134 -33 -30 -16
-68 -29 -86 -29 -49 -1 -101 -24 -153 -67 -69 -57 -67 -57 -114 -12 -58 53
-84 66 -159 78 -34 6 -81 21 -103 34 -32 19 -61 26 -123 29 -101 6 -170 40
-227 114 -91 120 -113 282 -71 533 15 91 18 355 4 436 -5 31 -4 55 2 62 17 21
25 7 34 -59z m572 -20 c45 -27 83 -50 83 -51 7 -8 6 -1036 -1 -1046 -6 -11
-15 -10 -43 8 -20 12 -64 27 -99 32 -37 7 -82 23 -109 40 -39 25 -56 29 -117
29 -40 0 -72 4 -72 9 0 5 14 20 31 32 30 21 33 21 63 7 52 -27 62 -27 106 -6
35 18 45 19 68 8 52 -24 84 -30 106 -18 32 17 36 28 35 88 0 30 3 67 6 81 5
21 1 30 -21 48 l-27 21 23 25 c19 20 22 32 17 71 -3 26 0 58 6 71 9 20 6 28
-18 53 l-29 30 22 20 c18 17 22 33 24 85 1 36 2 75 2 87 1 29 -52 65 -107 73
-27 4 -71 -1 -122 -13 -51 -12 -86 -16 -97 -11 -25 13 -56 11 -83 -7 -18 -12
-28 -13 -45 -4 -29 15 -52 6 -73 -30 -19 -31 -17 -41 16 -77 19 -21 19 -24 4
-41 -21 -23 -21 -41 -1 -63 15 -17 15 -20 -10 -49 -33 -40 -33 -64 0 -97 l25
-25 -22 -24 -23 -24 22 -29 c18 -24 19 -31 8 -40 -8 -7 -19 -25 -26 -42 -12
-28 -11 -32 15 -59 28 -29 28 -30 10 -50 -25 -27 -28 -26 -53 18 -51 91 -65
249 -36 422 12 73 24 266 24 379 0 9 135 107 182 132 31 17 48 -6 48 -65 0
-82 33 -120 135 -154 l58 -20 29 28 c34 35 34 41 4 77 -13 15 -33 47 -44 70
-12 23 -26 44 -32 48 -5 3 -10 13 -10 21 0 17 20 8 148 -68z m-644 -10 c11
-97 7 -272 -11 -405 -9 -73 -21 -133 -25 -133 -4 0 -12 9 -18 20 -7 14 -6 44
5 107 21 118 29 314 17 388 -7 44 -7 62 2 67 20 13 23 9 30 -44z m1563 44 c9
-6 9 -27 1 -87 -11 -84 1 -293 23 -397 8 -37 8 -57 0 -75 -7 -14 -14 -23 -18
-19 -25 25 -51 352 -39 499 8 87 10 93 33 79z m-929 -288 c12 -8 27 -12 32 -9
6 3 10 0 10 -8 0 -16 -37 -51 -62 -60 -10 -4 -18 -11 -18 -17 0 -14 13 -13 28
2 7 7 12 8 12 4 0 -5 7 -3 15 4 12 10 14 7 10 -21 -2 -18 0 -41 6 -51 9 -16 5
-18 -31 -18 -22 0 -40 5 -40 10 0 6 9 10 20 10 11 0 20 7 20 15 0 20 -19 19
-41 -1 -17 -15 -21 -14 -63 16 -41 29 -49 32 -78 23 l-33 -10 43 -13 c44 -14
56 -30 23 -30 -11 0 -23 -4 -26 -10 -3 -5 -19 -10 -36 -10 -16 0 -29 5 -29 10
0 6 9 10 19 10 33 0 35 20 2 21 -17 1 -45 2 -62 3 -20 1 -34 -5 -40 -17 -6
-10 -14 -15 -19 -12 -5 3 -16 -5 -25 -19 -16 -24 -17 -24 -46 -8 -32 19 -38
35 -11 30 9 -1 31 6 48 16 38 23 35 53 -5 62 -14 3 -36 10 -48 16 -22 11 -22
12 -6 40 20 32 37 38 28 8 -9 -29 41 -48 61 -23 7 10 14 21 14 26 0 4 12 7 26
7 29 0 53 -24 54 -52 0 -16 12 -18 103 -18 69 1 110 5 127 15 l25 14 -35 1
c-19 0 -54 5 -78 10 -34 8 -48 7 -65 -5 -25 -17 -36 -18 -56 -6 -23 15 5 41
43 41 17 0 38 5 46 10 24 15 113 12 138 -6z m792 -17 c0 -6 9 -72 20 -145 40
-265 16 -426 -78 -525 -51 -54 -98 -72 -192 -72 -69 0 -88 -3 -103 -18 -25
-25 -80 -47 -119 -47 -47 -1 -100 -22 -147 -59 l-41 -33 0 459 0 458 330 -3
c252 -2 330 -5 330 -15z m-1027 -181 c28 -22 28 -23 8 -29 -12 -3 -35 0 -52 6
-25 10 -35 9 -60 -5 -41 -24 -36 -8 9 24 45 33 59 34 95 4z m141 15 c3 -5 -4
-11 -17 -15 -35 -9 -40 -7 -27 9 14 17 36 20 44 6z m82 -66 c20 -8 40 -12 45
-9 5 3 9 -1 9 -9 0 -17 -38 -53 -67 -62 -13 -3 -23 -13 -23 -22 0 -11 4 -13
13 -6 6 6 23 13 37 16 24 6 25 4 25 -38 l1 -45 -38 0 c-44 0 -48 7 -13 20 14
5 25 14 25 20 0 15 -21 12 -41 -6 -17 -15 -22 -14 -65 15 -50 33 -57 34 -89
21 -19 -7 -18 -9 8 -19 16 -6 33 -11 38 -11 18 0 8 -15 -18 -27 -32 -16 -73
-17 -73 -3 0 6 10 10 23 11 19 1 17 3 -10 15 -36 15 -92 9 -100 -12 -3 -8 -13
-14 -23 -14 -10 0 -21 -9 -25 -20 -6 -18 -8 -19 -35 -5 -36 19 -51 40 -21 30
26 -8 80 28 77 51 -3 20 -33 37 -52 30 -8 -3 -17 1 -21 10 -3 8 -12 13 -19 10
-19 -7 -18 0 8 34 25 34 44 41 28 10 -9 -17 -7 -22 16 -30 22 -9 30 -7 50 15
13 14 30 25 39 25 19 0 56 -36 53 -52 -4 -18 178 -23 218 -7 28 12 27 13 -33
20 -35 4 -67 11 -73 14 -5 3 -20 -1 -32 -9 -29 -20 -57 -20 -65 0 -7 20 13 34
52 34 17 0 37 5 45 10 22 14 86 12 126 -5z m-234 -196 c24 -18 27 -24 16 -30
-9 -5 -29 -3 -47 4 -27 10 -37 9 -62 -5 -42 -24 -36 -6 8 25 45 32 47 33 85 6z
m152 12 c3 -5 -4 -11 -17 -15 -35 -9 -40 -7 -27 9 14 17 36 20 44 6z m90 -66
c15 -8 32 -12 37 -9 5 3 9 -1 9 -9 0 -17 -38 -53 -66 -61 -11 -3 -21 -13 -21
-21 0 -11 4 -12 21 -2 42 22 54 19 50 -15 -2 -17 1 -37 7 -45 9 -10 4 -13 -30
-13 -22 0 -41 5 -41 10 0 6 9 10 20 10 11 0 20 7 20 15 0 20 -19 19 -42 -1
-16 -16 -19 -16 -40 0 -13 9 -33 23 -45 32 -16 11 -32 14 -55 8 l-33 -7 45
-20 c35 -16 41 -21 25 -25 -11 -2 -24 -8 -29 -13 -13 -12 -66 -11 -66 1 0 6 9
10 20 10 31 0 24 20 -7 22 -54 2 -88 -3 -99 -18 -6 -7 -13 -11 -17 -8 -3 3
-13 -5 -23 -19 l-18 -24 -33 20 c-39 22 -42 32 -10 23 16 -4 34 2 55 18 30 22
31 24 15 45 -11 16 -23 22 -39 18 -14 -2 -25 1 -28 10 -3 8 -10 11 -16 8 -15
-9 -12 3 7 36 20 33 38 39 28 10 -4 -14 0 -23 14 -30 29 -16 36 -14 51 14 15
29 70 37 70 10 0 -8 5 -15 10 -15 6 0 10 -9 10 -20 0 -19 7 -20 103 -20 69 1
110 5 127 15 25 14 25 14 -15 15 -22 0 -58 5 -79 10 -30 6 -45 5 -60 -6 -27
-19 -55 -18 -63 2 -7 20 13 34 52 34 17 0 37 5 45 10 23 15 101 12 134 -5z"/>
<path d="M700 2353 c-36 -14 -69 -83 -40 -83 6 0 10 -6 10 -14 0 -29 69 -36
92 -8 8 9 15 28 16 41 1 29 -16 64 -28 56 -5 -3 -11 -1 -15 5 -7 11 -12 11
-35 3z m35 -63 c0 -22 -29 -18 -33 3 -3 14 1 18 15 15 10 -2 18 -10 18 -18z"/>
<path d="M2290 2351 c0 -6 -7 -11 -15 -11 -16 0 -17 -1 -21 -47 -2 -34 14 -55
48 -60 24 -4 60 15 53 28 -4 5 -1 9 4 9 18 0 13 46 -6 62 -24 21 -63 32 -63
19z m38 -58 c-2 -10 -10 -18 -18 -18 -8 0 -16 8 -18 18 -2 12 3 17 18 17 15 0
20 -5 18 -17z"/>
<path d="M1737 2106 c-5 -13 63 -110 71 -102 5 5 -51 116 -59 116 -4 0 -9 -6
-12 -14z"/>
<path d="M2024 2105 c-6 -14 54 -101 62 -92 6 6 -40 106 -49 107 -4 0 -10 -7
-13 -15z"/>
<path d="M1642 2046 c-49 -60 -62 -86 -44 -86 4 0 27 25 51 56 l44 57 31 -34
c18 -19 39 -45 48 -58 9 -13 21 -20 27 -16 7 4 -11 33 -46 76 -31 38 -58 69
-58 69 -1 0 -25 -29 -53 -64z"/>
<path d="M1935 2058 c-62 -80 -66 -86 -56 -92 5 -3 28 19 52 49 24 30 46 54
49 55 3 0 25 -25 48 -55 41 -53 62 -67 62 -44 0 6 -22 36 -50 67 -27 31 -50
60 -50 64 0 18 -17 4 -55 -44z"/>
<path d="M1646 1975 c-36 -43 -37 -46 -25 -80 10 -28 18 -35 39 -35 27 0 27 0
28 80 0 44 -1 80 -2 80 -2 0 -20 -20 -40 -45z"/>
<path d="M1710 1941 c0 -79 1 -81 24 -81 19 0 27 8 36 35 11 32 9 37 -24 81
l-36 47 0 -82z"/>
<path d="M1929 1972 c-34 -45 -35 -48 -22 -79 10 -25 19 -33 38 -33 25 0 25 1
25 80 0 44 -1 80 -2 80 -2 -1 -19 -22 -39 -48z"/>
<path d="M1990 1943 c0 -82 0 -83 25 -83 20 0 29 8 40 32 14 35 14 35 -44 108
l-21 25 0 -82z"/>
<path d="M1652 1828 c7 -20 84 -22 91 -4 5 13 -3 16 -44 16 -36 0 -49 -4 -47
-12z"/>
<path d="M1937 1824 c7 -18 84 -16 91 4 2 8 -11 12 -47 12 -41 0 -49 -3 -44
-16z"/>
<path d="M1882 1794 c-8 -16 -3 -27 29 -64 46 -53 48 -45 10 29 -25 49 -29 53
-39 35z"/>
<path d="M1794 1743 c-63 -77 -66 -82 -59 -93 3 -6 26 14 51 45 25 30 49 55
53 55 4 0 28 -25 52 -55 25 -31 47 -51 52 -46 8 8 -89 138 -104 140 -3 1 -23
-20 -45 -46z"/>
<path d="M1788 1658 c-37 -46 -38 -46 -23 -82 12 -28 20 -35 38 -32 24 3 31
36 25 117 l-3 42 -37 -45z"/>
<path d="M1850 1625 c0 -77 1 -80 24 -81 19 -1 27 6 38 35 15 37 15 37 -24 81
l-38 45 0 -80z"/>
<path d="M1793 1515 c2 -5 23 -10 47 -10 24 0 45 5 47 10 2 6 -18 10 -47 10
-29 0 -49 -4 -47 -10z"/>
<path d="M930 2061 c0 -20 36 -71 50 -71 5 0 -2 12 -16 27 -15 16 -23 35 -21
45 3 10 1 18 -4 18 -5 0 -9 -8 -9 -19z"/>
<path d="M1281 2043 c-2 -32 9 -52 33 -65 l21 -11 -22 24 c-12 13 -23 35 -26
49 -4 22 -4 22 -6 3z"/>
<path d="M1130 1915 c-10 -12 -11 -21 -4 -33 15 -22 27 -24 49 -8 16 12 18 18
9 33 -15 24 -38 27 -54 8z"/>
<path d="M967 1818 c-19 -10 -23 -43 -7 -53 20 -12 50 6 50 30 0 27 -19 37
-43 23z"/>
<path d="M1304 1816 c-10 -26 4 -48 28 -44 17 2 23 10 23 28 0 18 -6 26 -23
28 -13 2 -25 -3 -28 -12z"/>
<path d="M1265 1410 c52 -14 105 -19 105 -10 0 13 -29 20 -83 19 -45 -1 -48
-2 -22 -9z"/>
<path d="M1054 1348 c6 -52 26 -51 32 1 3 24 0 29 -16 28 -15 -1 -18 -7 -16
-29z"/>
<path d="M1849 1348 c-14 -31 -19 -33 -38 -15 -11 10 -12 3 -7 -38 l7 -50 -20
22 c-15 18 -20 20 -25 8 -4 -12 -11 -13 -32 -5 -25 10 -26 9 -20 -16 4 -16 3
-30 -4 -34 -7 -5 4 -19 30 -40 30 -24 39 -37 35 -51 -4 -13 -2 -18 7 -15 7 2
28 7 46 10 l32 6 0 -45 c0 -39 -3 -45 -20 -45 -29 0 -76 -26 -94 -52 -17 -24
-17 -24 -35 16 -8 20 -15 26 -20 18 -6 -10 -15 -10 -41 0 -26 8 -35 9 -38 0
-2 -7 -12 -12 -23 -12 -23 0 -25 -15 -4 -24 9 -3 12 -12 8 -22 -5 -13 -3 -16
10 -11 9 3 19 2 22 -2 3 -5 -10 -14 -28 -20 -23 -9 -28 -14 -18 -20 10 -7 11
-13 2 -30 -11 -19 -9 -21 18 -21 25 0 29 -3 24 -17 -5 -14 -1 -13 19 5 31 28
41 28 33 1 -5 -14 -3 -19 3 -15 6 3 13 -2 17 -13 9 -30 55 -5 55 31 0 15 7 33
15 41 12 13 12 17 -5 37 -10 12 -17 27 -14 33 7 20 69 57 93 57 l23 0 -4 -125
c-3 -95 -1 -125 8 -125 10 0 11 29 7 125 l-6 125 23 0 c28 0 86 -35 94 -57 4
-9 -2 -25 -14 -38 -18 -19 -19 -23 -6 -28 10 -4 16 -19 16 -39 0 -25 6 -36 25
-44 21 -10 25 -9 30 7 4 11 11 16 17 13 6 -4 8 1 3 15 -8 27 3 27 32 -1 20
-18 23 -19 23 -5 0 12 8 17 25 17 23 0 25 2 14 21 -8 17 -8 23 2 29 9 6 2 13
-22 23 -29 13 -31 15 -10 16 17 1 21 5 17 16 -3 9 1 18 9 21 21 9 19 24 -4 24
-11 0 -21 5 -23 10 -2 7 -14 7 -37 -1 -25 -9 -35 -9 -41 0 -4 8 -11 2 -20 -18
-14 -34 -25 -39 -34 -16 -7 21 -66 55 -93 55 -20 0 -23 5 -23 45 0 25 3 45 8
45 4 0 24 -4 45 -9 33 -8 37 -7 33 7 -3 11 10 29 39 52 27 20 40 37 33 41 -6
4 -8 18 -4 33 6 24 5 25 -21 15 -20 -7 -28 -7 -35 3 -7 10 -11 9 -22 -4 -26
-35 -29 -18 -9 56 4 15 2 16 -13 8 -16 -9 -23 -6 -41 16 l-21 27 -13 -27z m56
-81 c13 -21 30 -33 48 -35 34 -4 34 -12 -1 -45 -24 -23 -37 -27 -84 -27 -41 0
-62 5 -82 21 -26 20 -35 49 -16 49 29 0 60 16 60 32 0 18 31 47 43 42 7 -3 21
-19 32 -37z m-205 -314 c24 -31 24 -80 0 -74 -8 2 -28 6 -43 9 -26 4 -28 8
-23 35 3 16 6 36 6 43 0 24 37 15 60 -13z m394 -15 c7 -40 -6 -64 -26 -51 -5
2 -15 -1 -23 -7 -36 -30 -48 31 -14 74 31 40 55 34 63 -16z"/>
<path d="M1250 1162 c8 -5 40 -13 70 -16 43 -6 52 -5 43 5 -7 7 -38 14 -70 16
-38 3 -53 1 -43 -5z"/>
<path d="M1044 1102 c2 -15 4 -30 5 -34 3 -19 20 -5 30 22 5 17 9 30 8 31 -1
0 -12 2 -24 5 -19 3 -21 0 -19 -24z"/>
<path d="M1255 911 c11 -4 43 -11 70 -14 46 -6 48 -5 31 8 -12 9 -40 15 -70
14 -36 0 -45 -3 -31 -8z"/>
<path d="M1046 870 c-8 -17 18 -69 30 -58 3 4 8 21 10 37 3 25 0 29 -17 28
-11 -1 -22 -4 -23 -7z"/>
<path d="M709 663 c-5 -13 -9 -28 -9 -32 0 -5 -16 -8 -36 -7 l-36 1 -39 -99
-40 -99 29 -36 c16 -20 50 -49 75 -65 42 -26 59 -29 174 -37 173 -12 235 -41
391 -182 67 -60 154 -96 248 -103 141 -11 225 23 374 152 36 31 97 71 135 90
62 30 84 35 192 43 143 10 194 30 248 95 l35 43 -42 102 c-42 103 -42 103 -74
98 -28 -5 -32 -2 -43 28 l-12 34 -45 -45 c-27 -27 -72 -58 -112 -75 -109 -49
-117 -54 -120 -77 -3 -16 -14 -24 -45 -33 -78 -21 -193 -89 -275 -163 -45 -41
-97 -81 -116 -90 -74 -35 -145 -12 -247 79 -85 77 -182 139 -255 164 -44 14
-60 25 -64 42 -6 25 -7 26 -111 72 -45 20 -95 52 -123 80 l-47 45 -10 -25z
m143 -101 c24 -12 65 -30 91 -42 59 -24 54 -45 -9 -37 -28 3 -68 20 -116 51
-109 69 -111 71 -104 101 l7 26 44 -39 c24 -21 63 -48 87 -60z m1438 58 c0
-16 -96 -84 -168 -120 -43 -21 -107 -24 -107 -5 0 5 32 23 72 38 39 16 97 50
130 76 56 46 73 49 73 11z m-1635 -70 c34 -53 106 -80 226 -86 171 -9 258 -46
409 -174 103 -88 147 -111 209 -112 63 0 95 18 189 103 135 123 230 166 402
180 156 13 186 23 239 75 24 24 45 43 46 42 0 -2 14 -36 29 -76 30 -79 30 -79
-24 -130 -48 -45 -105 -63 -228 -72 -160 -11 -215 -36 -362 -165 -78 -68 -135
-98 -215 -115 -70 -14 -144 -8 -218 20 -56 21 -79 37 -193 133 -108 91 -173
117 -313 127 -64 5 -127 12 -141 16 -37 11 -104 59 -124 89 -16 25 -16 29 11
100 15 41 30 75 33 75 3 0 14 -14 25 -30z"/>
<path d="M2190 421 c0 -28 -17 -35 -25 -11 -10 31 -35 25 -35 -9 0 -16 -3 -36
-6 -45 -4 -11 -1 -16 10 -16 11 0 16 9 17 28 l1 27 11 -27 c13 -32 27 -37 27
-9 0 11 5 23 10 26 6 3 10 -3 10 -14 0 -19 17 -38 26 -28 3 2 0 25 -7 51 -11
46 -39 65 -39 27z"/>
<path d="M770 420 c0 -5 5 -10 10 -10 6 0 10 -18 10 -41 0 -52 24 -48 28 4 2
20 7 37 13 37 5 0 9 5 9 10 0 6 -16 10 -35 10 -19 0 -35 -4 -35 -10z"/>
<path d="M870 379 c0 -46 2 -49 25 -49 14 0 25 5 25 10 0 6 -7 10 -15 10 -8 0
-15 5 -15 10 0 6 7 10 15 10 21 0 19 18 -2 23 -17 4 -17 5 0 6 27 2 20 29 -8
29 -23 0 -25 -4 -25 -49z"/>
<path d="M2060 380 c0 -38 4 -50 15 -50 11 0 15 12 15 50 0 38 -4 50 -15 50
-11 0 -15 -12 -15 -50z"/>
<path d="M960 408 c0 -7 -3 -30 -6 -50 -5 -25 -3 -38 5 -38 6 0 11 8 12 18 0
13 3 12 11 -5 6 -13 17 -23 25 -23 10 0 11 5 4 17 -7 13 -5 23 7 36 14 15 14
19 1 31 -22 21 -59 30 -59 14z"/>
<path d="M1973 413 c-21 -8 -15 -44 7 -50 11 -3 20 -9 20 -14 0 -5 -9 -9 -20
-9 -11 0 -20 -4 -20 -10 0 -16 46 -12 60 5 15 18 -2 45 -28 45 -8 0 -12 3 -8
8 4 4 12 7 17 7 5 0 9 5 10 10 0 12 -20 16 -38 8z"/>
<path d="M1873 380 c-39 -16 -40 -70 -1 -91 29 -16 70 14 66 48 -4 33 -36 54
-65 43z m45 -43 c4 -20 -25 -34 -40 -19 -15 15 -1 44 19 40 10 -2 19 -11 21
-21z"/>
<path d="M1067 343 c-40 -31 -47 -45 -19 -42 32 3 40 -1 46 -23 8 -34 24 -11
28 41 2 25 -2 46 -8 48 -5 2 -27 -9 -47 -24z"/>
<path d="M1148 286 c-19 -23 -24 -37 -17 -42 6 -3 15 -1 19 6 6 9 9 6 12 -10
1 -13 9 -25 17 -28 9 -3 11 1 7 16 -5 14 -1 21 14 25 22 6 27 36 8 55 -19 19
-31 14 -60 -22z"/>
<path d="M1766 307 c-18 -13 -18 -15 5 -50 22 -33 49 -49 49 -29 0 4 -6 14
-12 21 -11 10 -8 11 13 6 16 -4 30 -2 33 4 4 7 -1 11 -13 11 -13 0 -21 8 -23
22 -4 27 -26 34 -52 15z"/>
<path d="M1685 230 c-18 -20 -18 -21 13 -53 23 -23 35 -28 43 -20 7 7 8 13 0
17 -7 5 -7 13 1 26 9 14 9 22 -1 34 -18 21 -34 20 -56 -4z"/>
<path d="M1308 161 l-25 -39 22 -12 c56 -30 102 16 64 64 -11 14 -24 26 -28
26 -4 0 -19 -18 -33 -39z m49 -25 c-4 -9 -13 -16 -22 -16 -18 0 -19 5 -4 32
13 24 35 9 26 -16z"/>
<path d="M1406 128 c-15 -57 -3 -78 44 -78 13 0 22 11 29 38 14 48 14 52 -3
52 -9 0 -16 -12 -18 -32 -2 -21 -8 -33 -18 -33 -11 0 -14 9 -12 38 4 40 -12
51 -22 15z"/>
<path d="M1570 123 l-1 -28 -18 23 c-30 34 -45 28 -37 -15 3 -21 6 -44 6 -50
0 -7 5 -13 10 -13 6 0 10 12 10 28 l0 27 20 -25 20 -25 0 28 c0 33 15 36 24 5
4 -16 8 -20 16 -12 8 8 6 21 -6 48 -21 43 -44 48 -44 9z"/>
</g>
</svg>
