<?xml version="1.0" standalone="no"?>
<!DOCTYPE svg PUBLIC "-//W3C//DTD SVG 20010904//EN"
 "http://www.w3.org/TR/2001/REC-SVG-20010904/DTD/svg10.dtd">
<svg version="1.0" xmlns="http://www.w3.org/2000/svg"
 width="300.000000pt" height="289.000000pt" viewBox="0 0 300.000000 289.000000"
 preserveAspectRatio="xMidYMid meet">
<metadata>
Created by potrace 1.10, written by Peter Selinger 2001-2011
</metadata>
<g transform="translate(0.000000,289.000000) scale(0.100000,-0.100000)"
fill="#000000" stroke="none">
<path d="M44 1811 c-9 -10 10 -21 36 -21 16 0 30 -7 34 -16 11 -28 7 -464 -4
-485 -6 -11 -21 -19 -35 -19 -14 0 -25 -4 -25 -8 0 -4 54 -8 120 -9 66 0 120
3 120 8 0 5 -13 9 -29 9 -16 0 -33 6 -39 13 -6 6 -11 55 -13 107 l-3 95 40 -3
c42 -3 43 -3 131 -121 68 -91 86 -101 176 -108 55 -4 77 -3 77 6 0 6 -11 11
-24 11 -38 0 -85 39 -169 142 l-80 98 37 40 c20 23 41 52 46 66 15 37 12 91
-5 124 -28 54 -63 64 -233 70 -85 3 -155 3 -158 1z m263 -51 c59 -36 77 -110
45 -183 -22 -50 -42 -61 -106 -55 l-37 3 0 120 c0 66 0 123 0 128 2 14 67 6
98 -13z"/>
<path d="M650 1721 c0 -5 12 -11 28 -13 l27 -3 0 -215 0 -215 -22 -3 c-13 -2
-23 -7 -23 -11 0 -4 47 -7 105 -7 58 -1 105 3 105 8 0 4 -11 8 -24 8 -44 0
-47 15 -44 231 l3 204 28 3 c15 2 27 8 27 13 0 5 -47 9 -105 9 -58 0 -105 -4
-105 -9z"/>
<path d="M896 1721 c5 -5 20 -11 34 -13 l25 -3 0 -215 0 -215 -22 -3 c-13 -2
-23 -7 -23 -11 0 -4 76 -8 168 -7 167 1 169 1 228 31 47 25 65 41 92 85 31 52
33 59 30 136 -2 65 -7 87 -27 116 -58 84 -136 108 -360 108 -94 0 -151 -4
-145 -9z m324 -48 c78 -32 120 -101 120 -198 0 -79 -26 -135 -76 -166 -32 -20
-52 -24 -112 -24 -104 0 -102 -3 -102 221 0 165 2 183 18 187 26 8 113 -4 152
-20z m155 -93 c16 -32 21 -60 6 -44 -10 11 -32 74 -26 74 3 0 11 -13 20 -30z"/>
<path d="M1460 1721 c0 -5 12 -11 28 -13 l27 -3 3 -195 c1 -107 0 -205 -3
-217 -4 -17 -13 -23 -32 -23 -14 0 -23 -3 -20 -6 3 -4 80 -8 171 -10 183 -4
168 -10 182 69 4 24 2 37 -5 37 -6 0 -11 -7 -11 -15 0 -34 -38 -55 -98 -55
-95 0 -93 -5 -90 220 l3 195 28 3 c15 2 27 8 27 13 0 5 -47 9 -105 9 -58 0
-105 -4 -105 -9z"/>
<path d="M1850 1720 c0 -5 13 -10 29 -10 17 0 31 -6 35 -16 10 -27 7 -384 -4
-405 -6 -10 -20 -19 -30 -19 -11 0 -20 -3 -20 -7 0 -5 73 -8 162 -8 l162 0 9
44 c6 29 5 47 -2 54 -8 8 -11 5 -11 -9 0 -36 -31 -54 -92 -54 -77 0 -88 14
-88 118 l0 82 65 0 c50 0 67 -4 70 -15 3 -8 7 -22 10 -31 8 -25 12 -15 20 51
6 49 5 57 -7 48 -7 -6 -45 -13 -83 -15 l-70 -3 -3 83 -3 82 60 0 c72 0 91 -6
91 -30 0 -18 19 -39 21 -23 0 4 3 27 5 51 l5 42 -165 0 c-104 0 -166 -4 -166
-10z m124 -223 c-3 -9 -10 -17 -15 -17 -11 0 -12 34 -2 44 11 11 24 -9 17 -27z"/>
<path d="M2210 1720 c0 -5 9 -10 19 -10 25 0 63 -45 134 -157 l58 -91 -3 -94
-3 -93 -30 -6 c-16 -4 -28 -8 -25 -9 15 -7 220 -6 220 1 0 5 -9 9 -19 9 -48 0
-51 7 -51 106 l0 94 55 90 c74 118 101 150 131 150 13 0 24 5 24 10 0 6 -33
10 -80 10 -47 0 -80 -4 -80 -10 0 -5 7 -10 15 -10 8 0 15 -5 15 -11 0 -13
-103 -198 -110 -199 -3 0 -18 24 -33 53 -14 28 -39 74 -54 101 -20 34 -24 50
-15 53 35 13 2 23 -78 23 -53 0 -90 -4 -90 -10z"/>
<path d="M2782 1560 c-5 -14 -19 -47 -31 -73 l-21 -48 25 18 c13 10 27 26 30
36 4 11 17 17 35 17 41 0 48 -31 17 -72 -43 -59 -40 -60 26 -16 64 42 74 58
36 58 -22 0 -22 3 -9 49 5 19 8 36 6 39 -2 2 -22 -6 -44 -17 l-40 -21 -10 28
-10 27 -10 -25z"/>
<path d="M2622 1538 c-7 -29 -12 -33 -37 -30 -22 3 -27 1 -22 -12 4 -9 14 -42
23 -73 16 -55 16 -56 -5 -73 -22 -16 -22 -16 28 -40 28 -13 51 -26 51 -30 0
-3 -17 -23 -38 -43 l-38 -37 -1272 2 c-1206 3 -1272 2 -1272 -14 0 -17 55 -18
1010 -18 l1009 0 3 -77 c2 -43 6 -77 11 -75 4 1 124 2 267 2 l260 0 0 85 0 85
39 39 39 39 31 -36 c30 -36 30 -36 37 -14 6 22 9 23 85 16 54 -4 79 -3 79 4 0
6 -4 14 -10 17 -17 11 -11 24 20 40 38 20 38 28 -1 42 -27 11 -30 15 -19 28
18 22 8 27 -34 20 -44 -9 -45 -15 -6 -37 35 -20 38 -40 10 -66 -29 -26 -156
-29 -163 -3 -2 10 2 29 9 42 7 13 13 29 13 34 0 6 -9 -7 -19 -27 -21 -39 -40
-57 -40 -38 0 6 5 21 12 33 10 20 9 21 -5 9 -12 -10 -19 -11 -35 -1 -15 9 -21
28 -26 78 -5 56 -3 69 13 84 24 24 56 15 76 -21 14 -27 14 -27 15 21 0 47 -7
56 -27 36 -7 -7 -16 -3 -31 15 -26 33 -30 33 -40 -6z m-481 -368 c-18 -15 -19
-20 -7 -20 25 0 22 -86 -3 -99 -29 -16 -43 9 -39 70 3 47 6 54 28 60 42 12 46
9 21 -11z m87 0 c-10 -16 -10 -24 -1 -39 10 -15 9 -22 -2 -31 -20 -17 -19 -47
3 -59 24 -14 -1 -14 -33 1 -24 11 -26 15 -23 72 3 59 4 61 33 67 17 4 31 7 33
8 1 0 -3 -8 -10 -19z m122 10 c0 -4 -5 -11 -12 -18 -8 -8 -8 -15 2 -27 10 -12
10 -19 2 -27 -15 -15 -16 -50 -2 -64 7 -7 -2 -10 -26 -11 -26 -1 -33 2 -25 10
14 14 14 50 -1 65 -8 8 -8 15 2 27 10 12 11 21 3 34 -10 15 -7 17 23 17 19 -1
34 -3 34 -6z m110 3 c0 -2 -6 -12 -12 -23 -15 -24 -1 -53 28 -59 18 -3 18 -3
1 16 -20 23 -13 56 12 51 10 -2 17 -15 19 -38 4 -43 -35 -84 -88 -94 -27 -4
-31 -3 -17 5 19 11 23 49 5 67 -8 8 -8 15 2 27 10 13 11 21 3 34 -10 15 -7 18
18 18 16 0 29 -2 29 -4z m88 -9 c18 -12 22 -25 22 -64 0 -52 -15 -70 -59 -70
-20 0 -20 1 4 36 29 43 31 61 9 92 -18 26 -8 29 24 6z m-273 -24 c0 -22 -29
-18 -33 3 -3 14 1 18 15 15 10 -2 18 -10 18 -18z m118 14 c9 -10 -4 -34 -19
-34 -8 0 -14 9 -14 20 0 19 19 27 33 14z m-123 -69 c15 -18 6 -45 -14 -45 -20
0 -29 16 -21 40 8 24 18 25 35 5z m120 0 c15 -18 6 -45 -15 -45 -18 0 -30 24
-21 45 7 19 20 19 36 0z"/>
<path d="M1355 1100 c-8 -13 11 -37 33 -43 10 -2 8 -4 -5 -3 -12 1 -22 -3 -23
-9 0 -5 15 -10 33 -10 25 0 32 4 32 20 0 13 -8 21 -22 23 -13 2 -23 8 -23 13
0 5 12 6 26 3 19 -5 25 -4 20 5 -9 14 -63 15 -71 1z"/>
<path d="M1490 1070 c0 -29 4 -40 15 -40 11 0 15 11 15 40 0 29 -4 40 -15 40
-11 0 -15 -11 -15 -40z"/>
<path d="M1590 1080 c0 -16 0 -33 -1 -37 0 -4 4 -9 10 -11 6 -2 11 6 11 19 l0
22 23 -21 c32 -30 37 -28 37 18 0 22 -4 40 -10 40 -5 0 -10 -10 -10 -22 l0
-21 -23 21 c-31 29 -37 28 -37 -8z"/>
<path d="M1741 1092 c-15 -28 13 -64 47 -60 36 4 41 28 6 25 -21 -1 -29 3 -32
17 -4 16 0 18 28 13 23 -5 30 -3 28 6 -8 21 -65 21 -77 -1z"/>
<path d="M1890 1070 c0 -40 0 -40 40 -40 22 0 40 5 40 10 0 6 -13 10 -30 10
-16 0 -30 5 -30 11 0 6 7 9 15 5 8 -3 15 -1 15 4 0 5 -8 11 -17 13 -11 3 -7 5
10 6 40 2 33 21 -8 21 -34 0 -35 -1 -35 -40z"/>
</g>
</svg>
