<?xml version="1.0" standalone="no"?>
<!DOCTYPE svg PUBLIC "-//W3C//DTD SVG 20010904//EN"
 "http://www.w3.org/TR/2001/REC-SVG-20010904/DTD/svg10.dtd">
<svg version="1.0" xmlns="http://www.w3.org/2000/svg"
 width="300.000000pt" height="120.000000pt" viewBox="0 0 300.000000 120.000000"
 preserveAspectRatio="xMidYMid meet">
<metadata>
Created by potrace 1.10, written by Peter Selinger 2001-2011
</metadata>
<g transform="translate(0.000000,120.000000) scale(0.100000,-0.100000)"
fill="#000000" stroke="none">
<path d="M908 1035 c-8 -19 -16 -24 -31 -19 -20 6 -20 -3 -1 -68 7 -25 -13
-22 -26 3 -9 16 -14 18 -26 8 -7 -6 -23 -9 -34 -6 -17 4 -19 1 -14 -19 6 -21
3 -24 -25 -24 -26 0 -31 -4 -31 -25 l0 -25 205 0 205 0 0 25 c0 22 -4 25 -34
25 -21 0 -36 -6 -40 -15 -4 -10 -20 -15 -53 -15 l-48 0 25 20 c14 11 38 18 55
17 24 -2 31 2 33 20 3 17 0 21 -12 17 -9 -4 -23 -1 -31 6 -11 9 -16 7 -27 -9
-28 -45 -33 -20 -12 52 5 16 2 18 -15 12 -16 -5 -23 -1 -31 19 -12 32 -17 33
-32 1z m32 -62 c25 -22 25 -40 1 -76 l-18 -28 -21 25 c-19 24 -19 27 -3 61 9
19 17 34 18 35 2 0 12 -8 23 -17z m-81 -67 l23 -25 -46 2 c-30 1 -46 5 -46 14
0 7 9 13 20 13 11 0 20 5 20 10 0 15 4 13 29 -14z"/>
<path d="M1728 767 l-3 -264 -30 -48 c-18 -29 -45 -56 -67 -68 -31 -15 -38
-25 -38 -48 0 -33 7 -35 54 -15 51 21 102 72 124 124 19 44 21 71 24 315 l3
267 -32 0 -32 0 -3 -263z"/>
<path d="M1386 909 c-92 -22 -138 -80 -117 -150 17 -55 52 -76 196 -118 89
-26 115 -44 115 -80 0 -38 -27 -59 -93 -72 -54 -11 -172 -2 -220 17 -14 5 -17
0 -17 -24 0 -28 3 -31 50 -41 72 -16 188 -14 247 4 63 19 103 62 103 110 0 76
-38 107 -175 145 -103 29 -133 45 -141 74 -15 62 45 91 170 83 44 -3 91 -8
104 -12 19 -7 22 -4 22 23 0 29 -2 30 -63 41 -74 13 -126 13 -181 0z"/>
<path d="M1850 670 l0 -240 35 0 35 0 0 115 0 115 88 -73 c181 -151 180 -151
233 -154 51 -3 61 5 32 23 -14 9 -266 206 -281 219 -2 2 62 54 142 116 l145
114 -44 3 c-43 3 -50 -1 -147 -79 -57 -45 -118 -96 -135 -113 l-33 -30 0 112
0 112 -35 0 -35 0 0 -240z"/>
<path d="M720 753 l0 -83 95 0 95 0 0 83 0 82 -95 0 -95 0 0 -82z m75 36 c-4
-5 5 -9 19 -9 14 0 25 3 24 8 -2 4 2 7 7 7 6 0 9 -3 8 -7 -5 -13 15 -9 21 5 6
12 4 -2 -8 -55 -7 -30 -35 -43 -72 -34 -26 7 -42 46 -28 68 5 7 9 16 10 21 1
4 2 10 3 13 0 3 6 2 11 -1 6 -4 8 -11 5 -16z"/>
<path d="M940 752 l0 -83 93 3 92 3 0 79 0 78 -93 2 -92 1 0 -83z m72 36 c9
-7 18 -22 21 -33 4 -16 5 -14 6 6 1 24 26 47 38 35 12 -11 14 -76 3 -76 -6 0
-8 4 -5 10 3 6 -1 7 -9 4 -9 -3 -14 -10 -11 -14 6 -10 -24 -22 -36 -14 -5 3
-6 10 -3 16 5 7 0 9 -14 6 -25 -7 -37 6 -25 25 4 6 6 20 5 30 -4 20 8 22 30 5z"/>
<path d="M720 590 l0 -59 48 -27 c26 -15 68 -39 95 -55 l47 -28 0 114 0 115
-95 0 -95 0 0 -60z m92 -24 l1 -41 4 41 c3 30 9 43 23 47 15 4 19 -2 22 -34 3
-32 0 -40 -19 -48 -26 -12 -56 -4 -47 11 4 6 -1 8 -13 4 -16 -5 -18 -1 -15 33
3 32 7 38 23 34 14 -4 19 -15 21 -47z"/>
<path d="M938 538 c-2 -59 0 -108 3 -108 3 0 47 22 96 50 l89 50 -1 57 -1 58
-91 1 -92 1 -3 -109z m69 68 c-4 -10 2 -13 19 -12 15 0 22 6 19 14 -2 6 2 12
10 12 19 0 31 -66 15 -85 -7 -8 -27 -15 -46 -15 -43 0 -61 29 -44 71 12 28 37
43 27 15z"/>
<path d="M1850 350 c0 -25 4 -30 23 -29 16 1 18 2 5 6 -10 2 -18 8 -18 13 0 5
8 11 18 13 14 4 14 5 -3 7 -20 1 -20 1 0 10 19 8 19 9 -2 9 -19 1 -23 -4 -23
-29z"/>
<path d="M2018 349 c5 -34 22 -39 23 -6 0 12 3 16 6 10 2 -7 12 -13 21 -14 14
0 13 -2 -3 -10 -20 -9 -20 -9 0 -6 12 1 21 11 23 25 2 12 10 22 18 22 11 0 12
-4 4 -19 -15 -29 -12 -39 5 -17 27 36 19 44 -43 44 l-58 -1 4 -28z"/>
<path d="M2140 370 c0 -5 7 -7 15 -4 8 4 15 1 15 -5 0 -7 -7 -14 -15 -17 -23
-9 -18 -24 8 -24 16 0 18 3 8 9 -9 6 -10 11 -2 15 18 12 12 36 -9 36 -11 0
-20 -4 -20 -10z"/>
<path d="M710 245 c-8 -10 -6 -17 12 -29 l22 -16 -22 0 c-13 0 -20 -4 -17 -10
10 -16 35 -12 42 6 4 10 -1 20 -13 27 -18 10 -18 10 1 17 16 6 16 7 2 13 -8 3
-21 0 -27 -8z"/>
<path d="M1169 244 c-13 -16 -13 -16 16 -32 19 -11 19 -11 -4 -12 -19 0 -22
-3 -14 -11 15 -15 43 -4 43 15 0 8 -10 18 -22 22 l-23 8 25 6 c20 5 22 7 8 12
-9 4 -22 1 -29 -8z"/>
<path d="M1765 244 c-18 -19 -19 -25 -1 -49 9 -13 18 -16 32 -10 18 8 17 9 -3
12 -14 3 -23 12 -23 23 0 12 8 20 23 22 19 3 19 4 5 10 -11 4 -24 1 -33 -8z"/>
<path d="M1920 245 c-8 -10 -6 -17 12 -29 l22 -16 -22 0 c-13 0 -20 -4 -17
-10 10 -16 35 -12 42 6 4 10 -1 20 -13 27 -18 10 -18 10 1 17 16 6 16 7 2 13
-8 3 -21 0 -27 -8z"/>
<path d="M1985 244 c-8 -9 -15 -21 -15 -28 0 -21 28 -39 47 -31 16 7 15 9 -7
14 -14 4 -25 13 -25 21 0 8 11 17 25 20 21 5 22 7 8 13 -10 3 -24 0 -33 -9z"/>
<path d="M2205 244 c-19 -19 -16 -43 7 -57 20 -13 48 6 48 34 0 28 -35 43 -55
23z m41 -15 c9 -15 -11 -33 -30 -26 -9 4 -13 13 -10 22 7 17 30 20 40 4z"/>
<path d="M767 242 c6 -4 13 -21 16 -37 l4 -30 2 32 c0 17 7 34 14 36 6 3 -1 6
-18 6 -16 0 -25 -3 -18 -7z"/>
<path d="M891 228 c-1 -19 -6 -28 -18 -28 -13 0 -14 -3 -5 -12 18 -18 34 4 29
38 l-4 29 -2 -27z"/>
<path d="M917 236 c-14 -35 23 -67 50 -45 8 7 13 22 11 33 -4 26 -52 35 -61
12z m48 -16 c0 -8 -8 -16 -17 -18 -13 -2 -18 3 -18 18 0 15 5 20 18 18 9 -2
17 -10 17 -18z"/>
<path d="M993 220 c0 -16 4 -30 9 -30 4 0 8 5 8 10 0 14 27 12 33 -2 3 -7 5 3
5 22 0 19 -2 29 -5 23 -6 -15 -33 -17 -33 -3 0 6 -4 10 -8 10 -5 0 -9 -13 -9
-30z"/>
<path d="M1071 214 c2 -32 3 -34 6 -10 4 28 5 28 19 7 21 -30 34 -26 34 9 0
17 -4 30 -10 30 -5 0 -10 -7 -10 -17 0 -14 -2 -14 -20 2 -20 18 -20 17 -19
-21z"/>
<path d="M1252 220 c1 -27 18 -45 18 -19 0 8 6 7 18 -2 15 -13 16 -12 3 4 -11
14 -11 20 0 35 13 15 12 16 -3 3 -12 -9 -18 -10 -18 -2 0 6 -4 11 -9 11 -5 0
-9 -13 -9 -30z"/>
<path d="M1340 220 c0 -30 23 -51 38 -35 4 4 1 10 -5 12 -7 3 -13 16 -13 29 0
13 -4 24 -10 24 -5 0 -10 -14 -10 -30z"/>
<path d="M1390 220 c0 -30 14 -41 23 -17 4 10 6 10 6 0 1 -15 21 -18 21 -3 0
12 -32 50 -42 50 -5 0 -8 -13 -8 -30z"/>
<path d="M1484 222 c-11 -28 -10 -29 17 -28 16 1 29 2 29 3 0 11 -21 53 -28
53 -4 0 -12 -13 -18 -28z"/>
<path d="M1540 220 c0 -16 5 -30 11 -30 5 0 7 5 4 10 -3 6 -2 10 4 10 5 0 14
-7 19 -15 6 -11 8 -5 9 20 1 31 -2 35 -23 35 -20 0 -24 -5 -24 -30z"/>
<path d="M1610 238 c0 -9 -3 -23 -6 -32 -3 -9 -1 -16 5 -16 6 0 11 8 11 18 1
14 4 13 20 -7 l20 -23 -1 38 c-1 24 -3 30 -6 16 l-4 -22 -19 22 c-16 19 -19
20 -20 6z"/>
<path d="M1687 244 c-13 -13 -7 -52 9 -58 22 -9 46 13 42 38 -3 21 -37 34 -51
20z m41 -27 c2 -12 -3 -17 -17 -17 -15 0 -21 6 -21 21 0 25 33 22 38 -4z"/>
<path d="M1822 220 c1 -27 18 -45 18 -18 0 6 10 3 23 -8 l22 -19 -19 22 c-16
20 -17 25 -5 40 13 16 12 17 -3 4 -12 -9 -18 -10 -18 -2 0 6 -4 11 -9 11 -5 0
-9 -13 -9 -30z"/>
<path d="M2040 220 c0 -16 5 -30 10 -30 6 0 10 5 10 10 0 14 27 12 33 -2 3 -7
5 3 5 22 0 19 -2 29 -5 23 -6 -15 -33 -17 -33 -3 0 6 -4 10 -10 10 -5 0 -10
-13 -10 -30z"/>
<path d="M2115 229 c-10 -30 18 -58 43 -43 9 6 17 22 17 35 0 34 -50 41 -60 8z
m51 0 c9 -15 -11 -33 -30 -26 -9 4 -13 13 -10 22 7 17 30 20 40 4z"/>
<path d="M2271 218 c-1 -32 2 -38 19 -38 11 0 20 5 20 10 0 6 -6 10 -14 10 -8
0 -17 12 -19 28 -3 22 -4 20 -6 -10z"/>
</g>
</svg>
