<?xml version="1.0" standalone="no"?>
<!DOCTYPE svg PUBLIC "-//W3C//DTD SVG 20010904//EN"
 "http://www.w3.org/TR/2001/REC-SVG-20010904/DTD/svg10.dtd">
<svg version="1.0" xmlns="http://www.w3.org/2000/svg"
 width="300.000000pt" height="362.000000pt" viewBox="0 0 300.000000 362.000000"
 preserveAspectRatio="xMidYMid meet">
<metadata>
Created by potrace 1.10, written by Peter Selinger 2001-2011
</metadata>
<g transform="translate(0.000000,362.000000) scale(0.100000,-0.100000)"
fill="#000000" stroke="none">
<path d="M27 3573 c-10 -9 -8 -1711 2 -1717 4 -3 8 373 8 835 0 462 3 842 6
846 4 3 2 12 -4 20 -10 11 230 13 1460 13 l1471 0 3 -937 2 -938 0 940 0 940
-1471 3 c-809 1 -1474 -1 -1477 -5z"/>
<path d="M162 3472 c-13 -2 -27 -14 -32 -28 -6 -14 -9 -390 -9 -901 l1 -878
23 -125 c28 -148 39 -186 92 -310 44 -103 149 -279 200 -335 10 -11 30 -36 44
-55 129 -170 483 -455 699 -563 36 -17 67 -35 70 -38 7 -9 185 -93 232 -110
34 -12 43 -11 95 11 157 64 388 201 578 343 118 88 359 335 437 447 110 158
196 339 238 497 48 181 51 247 50 1159 -1 489 -5 856 -10 859 -5 3 -11 -384
-13 -927 l-3 -933 -26 -107 c-107 -431 -402 -806 -887 -1123 -54 -36 -171
-101 -258 -145 l-159 -80 -90 38 c-180 77 -383 196 -571 336 -137 102 -358
323 -445 446 -125 176 -228 407 -260 581 -8 45 -12 344 -15 997 l-3 932 1357
1 c777 0 1349 4 1337 9 -21 8 -2622 10 -2672 2z"/>
<path d="M203 2508 c3 -863 4 -896 24 -983 101 -437 392 -804 885 -1114 92
-58 289 -161 372 -195 l38 -16 115 55 c141 68 315 176 454 280 135 101 346
314 431 435 80 113 178 304 212 415 61 198 59 171 63 1133 l4 882 -1301 0
-1301 0 4 -892z m1277 866 l25 -5 -2 -272 c-2 -150 -5 -296 -9 -324 -5 -48 -7
-52 -24 -43 -13 7 -229 10 -630 8 -463 -2 -611 0 -614 9 -8 20 -6 597 2 609 4
7 16 14 27 17 26 6 1192 7 1225 1z m1270 -617 c0 -490 2 -599 14 -623 21 -43
15 -500 -8 -603 -50 -226 -128 -393 -280 -596 -79 -106 -268 -292 -389 -383
-203 -153 -504 -322 -572 -322 -39 0 -252 105 -395 195 -435 274 -720 603
-844 975 -42 126 -69 333 -51 382 4 11 114 12 610 10 495 -2 610 0 631 11 l26
14 -1 149 c-2 118 1 156 14 180 13 25 15 104 15 609 0 319 0 583 0 588 0 4
277 7 615 7 l615 0 0 -593z m-1280 -492 c0 -250 -3 -455 -7 -455 -5 0 -278 0
-608 -1 l-600 0 -3 456 -2 455 610 0 610 0 0 -455z"/>
<path d="M250 3060 l0 -290 610 0 610 0 0 290 0 290 -610 0 -610 0 0 -290z
m1200 114 c0 -175 7 -166 -73 -97 -24 22 -47 33 -68 33 -46 0 -89 26 -95 60
-7 35 -55 86 -90 94 -49 13 -122 -56 -99 -93 3 -6 -1 -11 -9 -11 -9 0 -16 4
-16 9 0 9 -93 81 -120 92 -8 4 -27 1 -41 -7 -30 -15 -111 -93 -155 -148 l-31
-40 -28 22 c-15 12 -41 22 -57 22 -51 0 -90 30 -103 78 -8 33 -35 61 -72 73
-60 20 -131 -46 -106 -98 5 -10 11 -38 12 -63 2 -54 17 -97 44 -127 12 -13 20
-38 21 -63 1 -38 5 -44 42 -65 23 -13 63 -25 89 -27 45 -3 49 -1 64 29 19 38
25 40 58 13 42 -33 62 -25 27 11 -74 78 -162 78 -108 1 20 -29 12 -39 -19 -25
-15 7 -29 8 -38 2 -28 -18 -41 -11 -25 13 9 12 16 35 16 49 0 23 -6 30 -37 39
-73 24 -103 72 -103 163 0 37 -5 59 -15 67 -14 12 -13 16 6 37 24 25 49 29 80
13 24 -13 49 -61 49 -93 0 -20 9 -28 40 -41 22 -9 61 -16 86 -16 39 0 45 -2
35 -14 -14 -16 -11 -19 42 -35 67 -22 40 -31 -84 -27 -102 3 -125 7 -148 24
-18 14 -25 28 -24 46 2 30 -13 35 -22 6 -16 -52 45 -90 154 -96 77 -4 171 -29
171 -45 0 -5 -11 -9 -25 -9 -30 0 -30 -1 -6 -40 l19 -31 15 44 c10 29 12 49 5
60 -5 11 -5 17 0 17 6 0 12 -6 15 -14 8 -21 125 -106 146 -106 23 0 121 78
152 121 l21 30 29 -27 c21 -20 29 -38 31 -72 3 -43 6 -47 48 -70 43 -23 100
-34 129 -24 7 3 19 18 25 33 l12 29 37 -20 c53 -29 65 -25 31 11 -74 78 -162
78 -108 1 20 -28 12 -39 -18 -25 -16 7 -30 7 -46 0 -29 -13 -40 -2 -19 21 10
10 17 30 17 45 0 21 -7 28 -37 37 -73 24 -103 72 -103 164 0 42 -4 57 -17 65
-17 9 -16 12 6 35 14 14 34 26 46 26 24 0 74 -41 76 -62 5 -48 7 -59 10 -62
24 -18 86 -36 124 -36 40 0 46 -2 36 -14 -14 -16 -11 -19 42 -35 68 -22 40
-31 -85 -25 -139 5 -175 20 -171 68 2 28 -14 35 -24 10 -9 -24 13 -61 47 -79
17 -9 66 -18 112 -20 80 -5 168 -29 168 -46 0 -5 -11 -9 -25 -9 -30 0 -29 2
-8 -40 15 -31 17 -32 30 -15 11 17 13 13 13 -33 l0 -52 -590 0 -590 0 0 270 0
270 590 0 590 0 0 -156z m-560 47 c0 -12 9 -21 24 -25 32 -8 86 -62 86 -87 0
-12 7 -19 20 -19 15 0 20 -7 20 -25 0 -15 -6 -25 -15 -25 -8 0 -21 -15 -28
-32 -17 -39 -41 -63 -80 -77 -17 -7 -27 -18 -27 -31 0 -27 -38 -27 -48 0 -4
11 -23 28 -42 38 -23 11 -42 32 -55 59 -12 26 -27 42 -37 43 -26 0 -23 40 2
47 11 3 20 11 20 19 0 21 58 81 85 88 16 4 25 13 25 26 0 15 7 20 25 20 18 0
25 -5 25 -19z m-450 -300 c16 -31 12 -38 -22 -44 -18 -2 -34 -4 -36 -2 -1 1 3
16 9 33 12 36 33 41 49 13z m740 -7 c15 -37 13 -39 -29 -40 l-40 -2 17 34 c19
40 39 44 52 8z"/>
<path d="M806 3138 c-37 -34 -37 -50 2 -52 31 -1 32 1 32 37 0 20 -2 37 -4 37
-3 0 -16 -10 -30 -22z"/>
<path d="M892 3124 c3 -33 6 -37 36 -39 40 -3 43 16 6 50 -37 34 -46 31 -42
-11z"/>
<path d="M770 3030 c0 -14 46 -60 60 -60 5 0 10 16 10 35 0 33 -2 35 -35 35
-19 0 -35 -5 -35 -10z"/>
<path d="M890 3005 c0 -41 17 -46 48 -12 31 33 28 47 -13 47 -33 0 -35 -2 -35
-35z"/>
<path d="M1805 3268 c-2 -7 -13 -46 -25 -86 l-21 -74 -90 4 c-49 1 -89 0 -89
-3 0 -3 32 -27 70 -54 39 -27 70 -51 70 -55 0 -4 -11 -40 -25 -80 -14 -41 -24
-78 -23 -82 2 -4 32 15 68 42 36 27 69 50 74 50 5 0 39 -22 76 -50 37 -27 70
-50 72 -50 3 0 -8 36 -23 81 -16 44 -29 84 -29 88 0 4 32 29 70 56 39 27 70
51 70 54 0 3 -40 4 -89 3 l-88 -4 -22 70 c-11 39 -21 75 -21 80 0 17 -20 25
-25 10z m53 -175 c9 -7 26 -13 39 -13 29 0 29 -13 2 -50 -14 -18 -20 -37 -17
-54 7 -33 -7 -42 -38 -25 -20 10 -32 10 -58 1 -45 -17 -46 -16 -39 19 4 22 0
38 -16 59 -11 16 -21 32 -21 34 0 3 15 12 33 20 18 7 41 26 51 41 l18 27 15
-24 c9 -12 23 -29 31 -35z"/>
<path d="M2431 3208 c-12 -40 -24 -79 -27 -86 -3 -11 -25 -13 -94 -10 -50 1
-90 0 -90 -3 0 -3 32 -27 70 -53 39 -27 70 -54 70 -61 0 -8 -12 -46 -26 -85
-14 -40 -23 -74 -20 -78 4 -3 19 6 34 19 39 36 99 79 110 79 5 0 39 -22 75
-50 72 -54 83 -59 72 -32 -17 41 -55 147 -55 153 0 3 32 27 70 53 39 25 70 49
70 54 0 4 -40 5 -88 4 l-89 -4 -22 79 c-13 43 -27 82 -31 86 -4 5 -17 -24 -29
-65z m106 -128 c32 0 34 -11 7 -46 -21 -26 -24 -40 -19 -65 7 -30 6 -31 -16
-24 -32 10 -69 11 -96 1 -21 -7 -23 -4 -23 29 0 21 -9 49 -20 65 l-20 28 32
11 c18 6 42 24 52 40 l20 29 31 -34 c18 -19 41 -34 52 -34z"/>
<path d="M2084 2857 c-17 -23 -134 -177 -261 -342 -126 -165 -246 -323 -266
-350 l-35 -50 -4 -148 c-2 -81 -1 -147 2 -147 3 1 37 42 75 93 239 313 518
672 524 675 4 1 146 -172 316 -384 l310 -387 3 152 3 151 -311 388 c-171 213
-314 388 -318 389 -4 1 -21 -17 -38 -40z m72 -50 c33 -37 32 -36 258 -319 91
-114 170 -213 175 -220 6 -7 34 -42 63 -78 29 -36 58 -69 65 -73 9 -6 13 -38
13 -110 l0 -102 -43 45 c-43 45 -127 148 -204 250 -23 30 -50 64 -60 75 -10
11 -72 87 -138 169 -66 82 -130 153 -142 159 -43 19 -57 5 -253 -253 -52 -69
-112 -148 -135 -176 -22 -27 -76 -96 -120 -152 -43 -56 -83 -102 -87 -102 -4
0 -8 41 -8 91 l0 91 48 57 c27 31 62 74 78 96 16 22 31 42 34 45 3 3 32 41 64
85 33 44 62 82 65 85 8 7 129 162 216 277 39 51 73 93 76 93 4 0 20 -15 35
-33z"/>
<path d="M2120 2338 c0 -7 -10 -45 -21 -85 l-22 -72 -94 -3 -95 -3 71 -49 c39
-26 73 -52 76 -56 2 -4 -9 -42 -25 -85 -16 -44 -27 -81 -25 -83 2 -3 36 19 74
47 44 33 75 50 83 45 7 -4 39 -27 71 -52 32 -24 60 -42 62 -40 2 2 -9 40 -25
86 l-28 82 75 53 75 52 -93 5 -94 5 -25 83 c-22 73 -40 105 -40 70z m35 -151
c12 -19 33 -36 53 -42 37 -11 39 -16 12 -40 -14 -13 -20 -31 -20 -61 l0 -43
-36 15 c-31 13 -39 13 -66 -1 -41 -20 -41 -20 -34 18 5 26 1 40 -19 67 l-26
35 28 9 c34 10 73 44 73 63 0 22 14 14 35 -20z"/>
<path d="M1555 1800 c4 -6 210 -10 586 -10 379 0 579 3 579 10 0 7 -202 10
-586 10 -387 0 -583 -3 -579 -10z"/>
<path d="M255 1688 c34 -358 207 -679 515 -956 121 -108 252 -206 388 -289
117 -71 336 -183 359 -183 30 0 283 137 408 221 508 340 769 729 819 1222 l6
57 -1251 0 -1251 0 7 -72z m2449 16 c8 -21 -10 -142 -36 -239 -101 -379 -404
-739 -856 -1017 -83 -51 -276 -148 -295 -148 -24 0 -251 116 -354 181 -505
321 -790 688 -860 1110 -9 53 -13 104 -10 113 6 15 112 16 1206 16 1075 0
1199 -2 1205 -16z"/>
<path d="M750 1638 c-82 -23 -140 -99 -140 -184 0 -72 30 -124 102 -175 101
-73 121 -92 121 -124 0 -42 -37 -68 -83 -60 -123 21 -133 17 -128 -56 4 -59
35 -80 126 -87 89 -6 134 9 188 63 l42 42 6 -30 c9 -44 34 -67 73 -67 61 0 73
24 73 149 0 61 4 112 9 116 5 3 26 -47 47 -111 20 -64 45 -125 55 -135 21 -21
60 -25 89 -9 17 9 53 92 95 222 10 31 22 55 27 52 4 -3 8 -58 8 -122 0 -140 9
-162 69 -162 26 0 44 7 57 21 18 20 19 40 19 319 0 350 3 340 -95 340 -45 0
-61 -4 -76 -21 -10 -11 -44 -96 -74 -187 -31 -92 -60 -167 -65 -167 -5 0 -33
74 -62 164 -63 196 -73 211 -153 211 -88 0 -96 -13 -93 -164 1 -66 0 -145 -3
-175 l-6 -53 -30 36 c-17 20 -63 59 -103 86 -76 52 -87 65 -78 99 7 27 39 35
107 27 49 -7 56 -5 70 16 21 30 20 70 -1 97 -30 36 -120 50 -193 29z m154 -38
c22 -8 26 -16 26 -50 l0 -41 -30 16 c-16 8 -50 15 -75 15 -61 0 -95 -32 -95
-88 0 -45 14 -60 110 -120 99 -63 134 -132 111 -219 -24 -87 -81 -127 -181
-126 -96 2 -117 13 -122 63 -4 45 -9 44 72 15 84 -31 150 9 150 90 0 50 -18
71 -111 131 -90 59 -114 93 -114 164 1 69 25 113 80 140 44 22 135 27 179 10z
m241 -2 c49 -156 117 -377 131 -423 13 -48 18 -56 25 -40 7 18 127 396 144
453 6 20 13 22 66 22 l59 0 0 -310 0 -310 -41 0 -42 0 5 265 c3 145 1 262 -3
259 -5 -3 -9 -13 -9 -22 0 -9 -36 -125 -80 -257 -78 -239 -79 -240 -109 -243
-33 -4 -16 -45 -141 353 -22 71 -40 135 -40 142 0 6 -5 15 -11 19 -8 4 -10
-68 -7 -255 l3 -261 -37 0 -38 0 0 310 0 310 60 0 c40 0 62 -4 65 -12z"/>
<path d="M2206 1635 c-21 -7 -56 -30 -76 -50 l-38 -37 -12 36 c-6 20 -20 41
-30 46 -31 17 -76 12 -96 -11 -17 -19 -20 -43 -24 -248 -3 -124 -9 -234 -14
-244 -19 -39 -70 -48 -107 -18 -24 19 -24 22 -29 256 -5 234 -5 237 -29 256
-30 24 -72 24 -102 0 l-24 -19 0 -239 0 -238 27 -52 c88 -166 320 -166 402 -1
23 47 26 63 26 165 0 62 4 113 8 113 5 0 17 -10 28 -21 10 -12 52 -44 92 -71
78 -53 98 -81 88 -123 -9 -37 -46 -51 -95 -37 -86 26 -121 10 -121 -56 0 -55
66 -92 165 -92 179 1 279 205 166 340 -14 17 -57 52 -95 78 -84 57 -94 71 -78
108 13 26 14 27 82 21 76 -6 94 2 106 50 19 75 -111 127 -220 88z m-466 -250
c0 -246 5 -274 55 -313 58 -46 143 -11 165 66 5 20 10 135 10 255 l0 217 40 0
40 0 0 -227 c0 -243 -6 -285 -47 -333 -38 -46 -80 -63 -148 -63 -68 0 -110 17
-148 63 -41 48 -47 90 -47 333 l0 227 40 0 40 0 0 -225z m630 216 c20 -5 26
-14 28 -45 3 -36 2 -38 -20 -32 -13 4 -46 10 -74 13 -43 4 -54 2 -77 -18 -15
-13 -30 -38 -33 -55 -8 -40 17 -69 110 -132 80 -54 106 -85 115 -139 24 -138
-75 -227 -227 -202 -36 5 -69 12 -74 15 -7 5 -12 84 -5 84 1 0 28 -9 59 -20
70 -24 109 -18 143 22 31 36 33 86 5 120 -11 14 -43 40 -72 59 -105 65 -138
109 -138 181 0 97 71 159 180 157 30 -1 66 -4 80 -8z"/>
<path d="M460 2622 c0 -7 -6 -12 -14 -12 -7 0 -19 -6 -25 -14 -7 -8 -28 -22
-47 -31 l-35 -16 7 -202 c8 -268 20 -427 33 -440 8 -8 43 -6 123 6 62 9 143
19 179 23 61 6 68 5 78 -14 25 -46 165 -47 194 -1 14 22 68 24 267 9 102 -8
127 -7 138 4 20 20 24 597 4 604 -8 2 -27 17 -43 33 -16 16 -34 29 -39 29 -6
0 -10 7 -10 17 0 33 -336 -2 -396 -42 -22 -14 -27 -14 -61 4 -52 26 -127 40
-249 48 -76 4 -104 3 -104 -5z m760 -288 l0 -277 -69 7 c-61 5 -165 -3 -258
-20 l-33 -6 0 250 0 250 48 20 c48 21 138 39 222 45 25 2 55 4 68 5 l22 2 0
-276z m-471 242 c30 -8 60 -21 67 -28 10 -10 15 -79 20 -262 l7 -249 -39 8
c-103 19 -165 24 -231 19 l-73 -7 0 273 0 273 98 -6 c53 -4 121 -13 151 -21z
m-279 -251 c0 -163 -4 -255 -10 -255 -6 0 -11 30 -11 68 l-2 67 -7 -50 c-10
-59 -2 -143 13 -152 6 -4 80 -5 164 -4 87 1 153 -1 153 -6 0 -13 -332 -33
-347 -21 -8 6 -12 87 -15 270 -2 198 -6 262 -16 266 -6 2 -10 8 -6 13 13 21
35 -24 38 -76 6 -89 16 -77 16 18 0 47 3 92 6 101 18 48 24 -8 24 -239z m804
123 c-5 -47 -3 -68 5 -68 6 0 13 12 17 28 9 44 13 52 22 52 13 0 2 -452 -10
-467 -11 -14 -107 -16 -218 -4 -91 10 -56 20 80 23 l115 3 3 93 c2 59 -1 92
-8 92 -5 0 -10 -18 -10 -40 0 -22 -4 -40 -9 -40 -9 0 -20 391 -12 419 3 11 7
9 18 -5 10 -14 12 -36 7 -86z m53 70 c13 -21 12 -38 -2 -38 -12 0 -25 21 -25
41 0 13 18 11 27 -3z m-584 -489 c22 -6 37 -12 35 -14 -1 -2 -61 -1 -131 2
-75 4 -123 9 -115 14 19 12 166 11 211 -2z m471 2 c3 -4 -48 -11 -113 -14 -66
-3 -128 -10 -138 -16 -17 -10 -17 -10 0 -11 21 0 22 -16 1 -24 -28 -11 -41 -6
-52 18 -10 22 -8 24 31 35 62 16 83 18 179 20 48 0 89 -3 92 -8z m-320 -64 c8
-14 8 -20 -4 -27 -19 -12 -51 -12 -70 0 -12 7 -11 12 5 30 22 24 53 23 69 -3z"/>
<path d="M20 1748 c0 -50 2 -89 4 -87 9 10 14 179 6 179 -6 0 -10 -40 -10 -92z"/>
<path d="M2952 1670 c0 -14 4 -38 8 -55 l8 -30 0 35 c0 19 -3 44 -8 55 -8 18
-9 18 -8 -5z"/>
<path d="M90 1333 c0 -22 53 -142 61 -137 5 3 9 10 9 15 0 6 -4 8 -9 5 -9 -6
-47 89 -45 112 1 6 -2 12 -7 12 -5 0 -9 -3 -9 -7z"/>
<path d="M155 1180 c-5 -8 30 -90 38 -90 2 0 3 9 3 19 0 11 -3 18 -7 16 -9 -6
-30 45 -24 56 4 5 4 9 1 9 -3 0 -8 -4 -11 -10z"/>
<path d="M2794 1092 c4 -6 -2 -19 -13 -28 -11 -10 -17 -24 -13 -32 3 -10 1
-13 -7 -8 -6 4 -10 4 -9 -1 4 -17 -14 -53 -24 -47 -7 5 -8 2 -3 -5 9 -16 16
-9 54 61 23 41 29 58 20 64 -8 4 -9 3 -5 -4z"/>
<path d="M2712 955 c9 -9 -46 -90 -85 -126 -16 -15 -24 -29 -19 -33 9 -5 34
24 100 121 17 24 19 33 10 39 -7 4 -10 4 -6 -1z"/>
<path d="M316 902 c-6 -10 65 -101 156 -203 63 -71 216 -211 283 -259 l30 -22
-27 25 c-15 14 -24 28 -20 32 4 4 0 5 -8 3 -8 -2 -14 3 -12 10 1 8 -2 11 -7 8
-5 -4 -14 2 -20 11 -6 10 -11 14 -11 9 0 -5 -9 -1 -20 9 -11 10 -17 22 -13 28
3 5 1 7 -4 4 -6 -4 -23 9 -37 28 -15 19 -34 35 -42 35 -8 0 -13 4 -9 9 5 10
-12 25 -30 26 -5 1 -9 6 -8 13 2 6 -13 23 -32 38 -19 14 -32 30 -29 35 3 5 0
8 -8 7 -7 -2 -12 3 -10 10 1 7 -5 15 -13 18 -8 3 -12 11 -8 17 3 5 1 7 -5 3
-12 -7 -54 42 -47 55 3 4 -6 16 -20 25 -13 9 -22 20 -19 25 3 5 3 9 0 9 -3 0
-7 -4 -10 -8z"/>
<path d="M2589 783 c-1 -4 -1 -11 0 -15 0 -3 -17 -22 -39 -42 -22 -20 -37 -36
-34 -36 4 0 1 -7 -6 -15 -6 -8 -17 -13 -23 -12 -6 1 -11 -5 -12 -13 0 -8 -6
-14 -13 -12 -7 1 -11 -3 -9 -10 1 -7 -5 -12 -13 -13 -8 0 -15 -7 -15 -15 0 -8
-7 -15 -15 -15 -8 0 -15 -5 -15 -11 0 -15 -71 -75 -79 -66 -4 4 -6 0 -4 -8 2
-8 -3 -14 -9 -15 -7 0 -13 -4 -12 -9 1 -9 -29 -30 -42 -31 -3 0 -19 -16 -35
-35 -25 -30 -21 -28 37 17 144 114 370 345 349 358 -5 3 -11 3 -11 -2z"/>
<path d="M792 419 c2 -6 26 -27 53 -46 28 -19 39 -25 25 -13 -71 61 -81 69
-78 59z"/>
<path d="M2164 381 c6 -10 -153 -118 -167 -113 -5 1 -6 -2 -2 -7 6 -11 21 -3
123 67 34 24 60 47 57 53 -4 5 -8 9 -11 9 -3 0 -3 -4 0 -9z"/>
<path d="M900 336 c0 -3 105 -75 146 -99 6 -3 11 0 11 7 0 8 -7 12 -15 8 -11
-4 -13 -1 -7 8 5 8 4 11 -2 7 -5 -3 -33 9 -61 28 -70 45 -72 47 -72 41z"/>
<path d="M1973 253 c6 -9 -39 -38 -55 -35 -3 1 -9 -5 -12 -13 -5 -13 -2 -13
22 -1 51 27 66 42 52 51 -8 5 -11 4 -7 -2z"/>
<path d="M1160 175 c0 -8 202 -107 207 -102 2 3 -5 8 -16 12 -12 3 -21 11 -21
17 0 6 -3 9 -6 5 -4 -3 -42 12 -85 34 -44 21 -79 37 -79 34z"/>
<path d="M1429 45 c29 -14 55 -24 58 -22 2 3 -15 12 -39 22 -69 28 -78 27 -19
0z"/>
</g>
</svg>
