<?xml version="1.0" standalone="no"?>
<!DOCTYPE svg PUBLIC "-//W3C//DTD SVG 20010904//EN"
 "http://www.w3.org/TR/2001/REC-SVG-20010904/DTD/svg10.dtd">
<svg version="1.0" xmlns="http://www.w3.org/2000/svg"
 width="300.000000pt" height="300.000000pt" viewBox="0 0 300.000000 300.000000"
 preserveAspectRatio="xMidYMid meet">
<metadata>
Created by potrace 1.10, written by Peter Selinger 2001-2011
</metadata>
<g transform="translate(0.000000,300.000000) scale(0.100000,-0.100000)"
fill="#000000" stroke="none">
<path d="M1154 2066 c-124 -39 -266 -154 -349 -284 l-40 -62 -61 0 c-59 0 -63
-2 -89 -36 l-27 -36 66 4 c53 2 65 0 61 -11 -8 -21 -254 -449 -293 -510 -19
-29 -50 -71 -69 -92 -48 -53 -75 -52 -128 6 l-41 46 -41 -30 c-54 -39 -69 -81
-42 -116 26 -32 75 -33 162 -4 94 31 156 71 228 146 81 84 136 162 229 323 39
69 88 151 108 182 l37 58 75 0 c75 0 75 0 98 35 l22 35 -75 0 c-41 0 -75 3
-75 8 0 17 84 158 125 212 65 85 121 115 160 86 16 -12 20 -26 20 -78 0 -79
16 -85 76 -31 45 41 73 94 64 122 -12 40 -116 54 -201 27z m153 -42 c7 -20
-12 -63 -32 -71 -20 -7 -21 -6 -30 45 -7 42 -7 42 24 42 20 0 34 -6 38 -16z
m-393 -209 c-20 -39 -32 -75 -28 -84 12 -29 9 -44 -9 -47 -10 -1 -25 -8 -34
-15 -14 -12 -72 -97 -98 -144 -116 -208 -258 -416 -272 -401 -6 6 8 34 93 181
151 259 177 308 177 332 0 14 -6 28 -12 32 -6 4 5 14 27 24 25 11 56 41 92 89
53 69 91 111 96 105 2 -1 -13 -34 -32 -72z m-706 -804 c31 -27 28 -38 -15 -50
-56 -16 -81 12 -46 51 20 23 32 22 61 -1z"/>
<path d="M129 1690 c-10 -38 -12 -63 -6 -67 5 -3 13 1 18 9 24 43 46 58 92 64
l47 7 -2 -169 -3 -168 -24 -6 c-14 -3 -26 -11 -29 -18 -3 -9 21 -12 92 -12 79
0 96 3 96 15 0 9 -9 15 -25 15 l-25 0 0 171 0 171 43 -7 c45 -8 73 -26 82 -56
8 -25 38 -26 31 -1 -3 9 -8 38 -12 64 l-6 47 -30 -15 c-39 -20 -299 -17 -306
4 -8 25 -18 11 -33 -48z"/>
<path d="M1170 1723 c-8 -3 -27 -17 -42 -31 -23 -21 -28 -34 -28 -74 0 -59 18
-79 109 -123 64 -30 79 -52 67 -98 -5 -23 -42 -47 -70 -47 -24 0 -66 41 -74
72 -11 42 -32 49 -32 10 0 -16 -3 -43 -6 -59 -5 -28 -4 -30 23 -32 15 0 58 -4
94 -7 63 -5 67 -4 96 25 47 46 53 119 14 165 -9 10 -41 30 -71 43 -68 30 -90
50 -90 78 0 35 24 58 60 58 33 0 56 -19 86 -69 18 -29 26 -11 19 42 l-7 49
-66 2 c-37 1 -74 -1 -82 -4z"/>
<path d="M2210 1710 c-15 -29 -3 -59 26 -66 24 -6 54 9 54 29 0 5 -8 3 -18 -6
-21 -19 -42 -6 -42 25 0 27 28 34 45 12 14 -18 14 -18 15 4 0 19 -5 22 -35 22
-24 0 -37 -6 -45 -20z"/>
<path d="M2320 1713 c0 -10 -7 -30 -14 -45 -14 -26 -13 -28 6 -28 14 0 18 5
14 15 -3 9 0 15 10 15 10 0 14 -6 10 -15 -4 -12 4 -15 46 -15 43 0 49 2 38 15
-6 8 -10 22 -8 32 3 14 8 11 22 -15 20 -39 42 -37 38 2 -2 15 2 34 8 42 10 11
9 14 -7 14 -16 0 -19 -5 -16 -27 l4 -28 -18 28 c-12 18 -26 27 -43 26 -14 0
-19 -3 -12 -6 14 -5 17 -59 3 -67 -12 -8 -28 13 -36 47 -8 31 -45 39 -45 10z"/>
<path d="M2522 1703 c-5 -16 -13 -36 -17 -45 -5 -13 -2 -18 10 -18 11 0 15 5
11 15 -3 9 0 15 9 15 8 0 15 -7 15 -15 0 -9 9 -15 21 -15 16 0 19 4 14 18 -4
9 -12 29 -17 45 -5 15 -16 27 -23 27 -7 0 -18 -12 -23 -27z"/>
<path d="M2605 1685 c-1 -41 2 -45 23 -45 39 0 62 18 62 49 0 31 -14 41 -58
41 -25 0 -27 -3 -27 -45z m62 -9 c-10 -25 -37 -19 -37 7 0 13 3 27 7 31 11 11
36 -21 30 -38z"/>
<path d="M2720 1703 c-6 -16 -15 -36 -20 -45 -8 -15 -6 -18 11 -18 15 0 19 5
15 15 -3 9 0 15 10 15 10 0 14 -6 10 -15 -4 -11 1 -15 19 -15 25 0 33 14 16
25 -5 3 -12 19 -16 35 -8 38 -32 39 -45 3z"/>
<path d="M2827 1723 c-2 -5 -5 -24 -5 -44 -1 -35 0 -36 36 -35 49 1 58 32 13
49 -17 6 -31 15 -31 19 0 12 28 10 35 -2 9 -15 25 -12 25 5 0 10 -10 15 -34
15 -19 0 -37 -3 -39 -7z"/>
<path d="M1710 1569 c0 -5 5 -9 10 -9 15 0 12 -57 -2 -63 -7 -3 10 -6 38 -6
50 -1 51 -1 47 27 -4 26 -4 26 11 8 9 -11 16 -23 16 -28 0 -4 7 -8 15 -8 10 0
15 10 15 29 0 16 3 36 6 45 4 10 1 16 -10 16 -12 0 -14 -7 -9 -30 7 -38 -2
-38 -22 -1 -13 26 -20 29 -65 29 -27 1 -50 -3 -50 -9z m70 -39 c0 -20 -5 -30
-15 -30 -10 0 -15 10 -15 30 0 20 5 30 15 30 10 0 15 -10 15 -30z"/>
<path d="M1880 1558 c0 -18 2 -19 16 -7 15 12 16 10 12 -24 -3 -32 -1 -37 17
-37 18 0 21 5 17 38 -3 29 -1 34 8 22 9 -11 13 -12 17 -2 2 6 9 12 14 12 14 0
11 -58 -3 -63 -7 -3 8 -6 35 -6 38 -1 47 2 47 16 0 13 -3 14 -12 5 -17 -17
-38 -15 -38 3 0 9 6 12 15 9 10 -4 15 0 15 11 0 11 -5 15 -15 11 -8 -3 -15 -1
-15 4 0 14 24 12 38 -2 9 -9 12 -7 12 9 0 20 -5 22 -90 22 -84 0 -90 -2 -90
-21z"/>
<path d="M2075 1535 c0 -41 2 -45 25 -44 14 0 19 3 13 6 -18 7 -16 33 2 33 8
0 15 -9 15 -19 0 -27 9 -30 55 -21 22 4 34 8 28 9 -7 0 -13 13 -12 29 l0 27
16 -32 c16 -32 18 -33 84 -33 l67 0 -17 45 c-9 25 -21 45 -28 45 -7 0 -18 -18
-24 -40 -7 -22 -17 -39 -23 -37 -12 5 -12 8 -2 50 5 22 3 27 -14 27 -17 0 -19
-5 -14 -32 l6 -33 -21 33 c-21 32 -44 41 -56 22 -3 -5 -1 -10 4 -10 6 0 11
-14 11 -30 0 -24 -4 -30 -17 -28 -22 4 -34 29 -21 45 11 14 -19 33 -54 33 -21
0 -24 -4 -23 -45z"/>
<path d="M2370 1558 c0 -18 2 -19 16 -7 15 12 16 10 12 -24 -4 -33 -2 -37 18
-37 21 0 22 2 12 31 -11 33 -3 52 13 29 8 -11 12 -12 16 -2 2 6 9 12 14 12 14
0 11 -58 -3 -63 -7 -3 -2 -6 12 -6 23 -1 25 3 25 43 l0 43 -67 0 c-61 1 -68
-1 -68 -19z"/>
<path d="M2532 1568 c-19 -19 -15 -66 7 -78 21 -10 51 -4 63 14 31 45 -32 102
-70 64z m48 -38 c0 -19 -5 -30 -14 -30 -17 0 -28 24 -20 45 11 27 34 17 34
-15z"/>
<path d="M2615 1570 c-3 -5 -1 -10 4 -10 15 0 14 -57 -1 -63 -7 -3 1 -5 17 -5
17 0 24 2 18 5 -7 2 -13 17 -12 31 0 27 0 27 16 -5 22 -44 43 -43 43 2 0 19 5
35 10 35 6 0 10 5 10 10 0 6 -9 10 -20 10 -17 0 -19 -5 -14 -32 l6 -33 -21 33
c-21 32 -44 41 -56 22z"/>
<path d="M2739 1543 c-6 -21 -17 -41 -23 -45 -6 -5 -1 -8 12 -8 13 0 21 4 17
9 -7 13 12 24 26 15 8 -4 7 -9 -2 -15 -9 -5 14 -9 59 -9 68 0 72 1 72 23 -1
20 -2 21 -14 5 -20 -27 -39 -23 -32 6 3 13 9 31 12 40 5 12 0 16 -19 16 -24 0
-25 -3 -20 -40 5 -32 3 -40 -10 -40 -10 0 -21 15 -28 40 -15 50 -34 51 -50 3z"/>
<path d="M2339 1413 c0 -5 -2 -25 -4 -46 l-4 -38 37 3 c29 2 38 8 40 25 3 17
-3 24 -22 29 -14 3 -26 10 -26 15 0 13 24 11 38 -3 9 -9 12 -8 12 5 0 13 -9
17 -35 17 -19 0 -35 -3 -36 -7z"/>
<path d="M2429 1399 c-16 -31 3 -69 35 -69 24 0 51 22 39 33 -3 4 -11 -1 -18
-10 -15 -21 -35 -9 -35 22 0 32 20 43 36 20 12 -16 14 -17 20 -2 3 9 10 14 15
11 13 -8 11 -48 -3 -62 -9 -9 -6 -12 14 -12 21 0 25 4 21 20 -4 14 0 20 12 20
12 0 15 -5 10 -20 -5 -17 -2 -20 21 -20 22 0 25 3 16 12 -7 7 -12 21 -12 33 0
12 5 26 12 33 9 9 6 12 -14 12 -21 0 -25 -4 -21 -20 4 -14 0 -20 -12 -20 -12
0 -16 6 -12 20 5 18 0 20 -54 20 -49 0 -60 -3 -70 -21z"/>
<path d="M2632 1408 c-28 -28 -7 -78 33 -78 27 0 45 18 45 45 0 27 -18 45 -45
45 -12 0 -26 -5 -33 -12z m53 -18 c7 -22 -11 -53 -26 -44 -5 3 -9 15 -9 28 0
39 24 50 35 16z"/>
<path d="M2732 1408 c-28 -28 -7 -78 33 -78 27 0 45 18 45 45 0 27 -18 45 -45
45 -12 0 -26 -5 -33 -12z m52 -14 c9 -23 -3 -56 -17 -51 -22 7 -21 67 2 67 5
0 12 -7 15 -16z"/>
<path d="M2825 1375 l0 -45 38 0 c30 0 37 4 37 20 0 24 -15 27 -24 4 -3 -8
-10 -12 -16 -9 -14 9 -13 48 2 63 9 9 7 12 -12 12 -23 0 -25 -4 -25 -45z"/>
</g>
</svg>
